<mxfile host="Electron" agent="Mozilla/5.0 (Windows NT 10.0; Win64; x64) AppleWebKit/537.36 (KHTML, like Gecko) draw.io/28.0.4 Chrome/138.0.7204.97 Electron/37.2.1 Safari/537.36" version="28.0.4">
  <diagram name="Seite-1" id="2s37TPQrAeQ8LH9y8FXJ">
    <mxGraphModel dx="2305" dy="1201" grid="1" gridSize="10" guides="1" tooltips="1" connect="1" arrows="1" fold="1" page="1" pageScale="1" pageWidth="827" pageHeight="1169" math="0" shadow="0">
      <root>
        <mxCell id="0" />
        <mxCell id="1" parent="0" />
        <mxCell id="hMoeo6pmhR3szECzcMf4-1" value="Iron Plate Production" style="rounded=0;whiteSpace=wrap;html=1;dashed=1;dashPattern=8 8;fillColor=#f5f5f5;fontColor=#333333;strokeColor=#666666;align=right;verticalAlign=bottom;fontStyle=1" vertex="1" parent="1">
          <mxGeometry x="680" y="40" width="470" height="240" as="geometry" />
        </mxCell>
        <mxCell id="hMoeo6pmhR3szECzcMf4-2" value="Iron Ingot Production" style="rounded=0;whiteSpace=wrap;html=1;dashed=1;dashPattern=8 8;fillColor=#f5f5f5;fontColor=#333333;strokeColor=#666666;align=right;verticalAlign=bottom;fontStyle=1" vertex="1" parent="1">
          <mxGeometry x="120" y="40" width="520" height="240" as="geometry" />
        </mxCell>
        <mxCell id="hMoeo6pmhR3szECzcMf4-3" value="«Constructor»&lt;br&gt;&lt;b&gt;Iron Plate&lt;/b&gt;" style="html=1;whiteSpace=wrap;" vertex="1" parent="1">
          <mxGeometry x="860" y="150" width="110" height="50" as="geometry" />
        </mxCell>
        <mxCell id="hMoeo6pmhR3szECzcMf4-4" value="" style="endArrow=classic;html=1;rounded=0;exitX=1;exitY=0.5;exitDx=0;exitDy=0;" edge="1" parent="1" source="hMoeo6pmhR3szECzcMf4-3">
          <mxGeometry width="50" height="50" relative="1" as="geometry">
            <mxPoint x="970" y="174.76" as="sourcePoint" />
            <mxPoint x="1050" y="175" as="targetPoint" />
          </mxGeometry>
        </mxCell>
        <mxCell id="hMoeo6pmhR3szECzcMf4-5" value="&lt;div&gt;Iron Plate&lt;/div&gt;(20 / min)" style="edgeLabel;html=1;align=center;verticalAlign=middle;resizable=0;points=[];fontSize=8;" vertex="1" connectable="0" parent="hMoeo6pmhR3szECzcMf4-4">
          <mxGeometry x="-0.0519" y="-2" relative="1" as="geometry">
            <mxPoint x="-7" y="-17" as="offset" />
          </mxGeometry>
        </mxCell>
        <mxCell id="hMoeo6pmhR3szECzcMf4-6" value="Merge" style="rhombus;whiteSpace=wrap;html=1;" vertex="1" parent="1">
          <mxGeometry x="1050" y="135" width="80" height="80" as="geometry" />
        </mxCell>
        <mxCell id="hMoeo6pmhR3szECzcMf4-7" value="«Constructor»&lt;br&gt;&lt;b&gt;Iron Plate&lt;/b&gt;" style="html=1;whiteSpace=wrap;" vertex="1" parent="1">
          <mxGeometry x="860" y="210" width="110" height="50" as="geometry" />
        </mxCell>
        <mxCell id="hMoeo6pmhR3szECzcMf4-8" value="" style="endArrow=classic;html=1;rounded=0;exitX=1;exitY=0.5;exitDx=0;exitDy=0;entryX=0;entryY=0.5;entryDx=0;entryDy=0;edgeStyle=orthogonalEdgeStyle;" edge="1" parent="1" source="hMoeo6pmhR3szECzcMf4-7" target="hMoeo6pmhR3szECzcMf4-6">
          <mxGeometry width="50" height="50" relative="1" as="geometry">
            <mxPoint x="1140" y="390" as="sourcePoint" />
            <mxPoint x="1217" y="390" as="targetPoint" />
            <Array as="points">
              <mxPoint x="1030" y="235" />
              <mxPoint x="1030" y="175" />
            </Array>
          </mxGeometry>
        </mxCell>
        <mxCell id="hMoeo6pmhR3szECzcMf4-9" value="&lt;div&gt;Iron Plate&lt;/div&gt;(20 / min)" style="edgeLabel;html=1;align=center;verticalAlign=middle;resizable=0;points=[];fontSize=8;" vertex="1" connectable="0" parent="hMoeo6pmhR3szECzcMf4-8">
          <mxGeometry x="-0.0519" y="-2" relative="1" as="geometry">
            <mxPoint x="-32" y="-9" as="offset" />
          </mxGeometry>
        </mxCell>
        <mxCell id="hMoeo6pmhR3szECzcMf4-10" value="«Smelter»&lt;br&gt;&lt;b&gt;Iron Ingot&lt;/b&gt;" style="html=1;whiteSpace=wrap;" vertex="1" parent="1">
          <mxGeometry x="330" y="150" width="110" height="50" as="geometry" />
        </mxCell>
        <mxCell id="hMoeo6pmhR3szECzcMf4-11" value="" style="endArrow=classic;html=1;rounded=0;exitX=1;exitY=0.5;exitDx=0;exitDy=0;entryX=0;entryY=0.5;entryDx=0;entryDy=0;" edge="1" parent="1" source="hMoeo6pmhR3szECzcMf4-28" target="hMoeo6pmhR3szECzcMf4-23">
          <mxGeometry width="50" height="50" relative="1" as="geometry">
            <mxPoint x="680" y="290" as="sourcePoint" />
            <mxPoint x="620" y="175" as="targetPoint" />
          </mxGeometry>
        </mxCell>
        <mxCell id="hMoeo6pmhR3szECzcMf4-12" value="Iron Ingot&lt;div&gt;(60 / min)&lt;/div&gt;" style="edgeLabel;html=1;align=center;verticalAlign=middle;resizable=0;points=[];fontSize=8;" vertex="1" connectable="0" parent="hMoeo6pmhR3szECzcMf4-11">
          <mxGeometry x="0.0548" y="1" relative="1" as="geometry">
            <mxPoint x="-12" y="-14" as="offset" />
          </mxGeometry>
        </mxCell>
        <mxCell id="hMoeo6pmhR3szECzcMf4-13" value="«Miner Mk. 1»&lt;br&gt;&lt;b&gt;Impure&lt;/b&gt;" style="html=1;whiteSpace=wrap;" vertex="1" parent="1">
          <mxGeometry x="140" y="150" width="110" height="50" as="geometry" />
        </mxCell>
        <mxCell id="hMoeo6pmhR3szECzcMf4-14" value="" style="endArrow=classic;html=1;rounded=0;exitX=1;exitY=0.5;exitDx=0;exitDy=0;entryX=0;entryY=0.5;entryDx=0;entryDy=0;" edge="1" parent="1" source="hMoeo6pmhR3szECzcMf4-13" target="hMoeo6pmhR3szECzcMf4-10">
          <mxGeometry width="50" height="50" relative="1" as="geometry">
            <mxPoint x="530" y="350" as="sourcePoint" />
            <mxPoint x="610" y="350" as="targetPoint" />
          </mxGeometry>
        </mxCell>
        <mxCell id="hMoeo6pmhR3szECzcMf4-15" value="Iron Ore&lt;div&gt;(30 / min)&lt;/div&gt;" style="edgeLabel;html=1;align=center;verticalAlign=middle;resizable=0;points=[];fontSize=8;" vertex="1" connectable="0" parent="hMoeo6pmhR3szECzcMf4-14">
          <mxGeometry x="0.0548" y="1" relative="1" as="geometry">
            <mxPoint y="-14" as="offset" />
          </mxGeometry>
        </mxCell>
        <mxCell id="hMoeo6pmhR3szECzcMf4-16" value="«Miner Mk. 1»&lt;br&gt;&lt;b&gt;Normal&lt;/b&gt;" style="html=1;whiteSpace=wrap;" vertex="1" parent="1">
          <mxGeometry x="140" y="60" width="110" height="50" as="geometry" />
        </mxCell>
        <mxCell id="hMoeo6pmhR3szECzcMf4-17" value="" style="endArrow=classic;html=1;rounded=0;exitX=1;exitY=0.5;exitDx=0;exitDy=0;fontSize=8;" edge="1" parent="1" source="hMoeo6pmhR3szECzcMf4-16">
          <mxGeometry width="50" height="50" relative="1" as="geometry">
            <mxPoint x="390" y="170" as="sourcePoint" />
            <mxPoint x="330" y="85" as="targetPoint" />
          </mxGeometry>
        </mxCell>
        <mxCell id="hMoeo6pmhR3szECzcMf4-18" value="60 / min" style="edgeLabel;html=1;align=center;verticalAlign=middle;resizable=0;points=[];fontSize=8;" vertex="1" connectable="0" parent="hMoeo6pmhR3szECzcMf4-17">
          <mxGeometry x="0.0548" y="1" relative="1" as="geometry">
            <mxPoint y="-14" as="offset" />
          </mxGeometry>
        </mxCell>
        <mxCell id="hMoeo6pmhR3szECzcMf4-19" value="&lt;b&gt;Power Usage: 18 MW&lt;/b&gt;&lt;div&gt;&lt;b&gt;&lt;br&gt;&lt;/b&gt;&lt;div&gt;- Miner (5 MW): 2 x 5 MW = 10 MW&lt;/div&gt;&lt;div&gt;- Smelter (4 MW): 2 x 4 MW = 8 MW&lt;/div&gt;&lt;/div&gt;" style="rounded=0;whiteSpace=wrap;html=1;align=left;verticalAlign=top;fillColor=#dae8fc;strokeColor=#6c8ebf;fontSize=8;" vertex="1" parent="1">
          <mxGeometry x="490" y="50" width="140" height="50" as="geometry" />
        </mxCell>
        <mxCell id="hMoeo6pmhR3szECzcMf4-20" value="&lt;b&gt;Power Usage: 8 MW&lt;/b&gt;&lt;div&gt;&lt;b&gt;&lt;br&gt;&lt;/b&gt;&lt;div&gt;- Constructor (4 MW): 2 x 4 MW = 8 MW&lt;/div&gt;&lt;/div&gt;" style="rounded=0;whiteSpace=wrap;html=1;align=left;verticalAlign=top;fillColor=#dae8fc;strokeColor=#6c8ebf;fontSize=8;" vertex="1" parent="1">
          <mxGeometry x="980" y="50" width="160" height="50" as="geometry" />
        </mxCell>
        <mxCell id="hMoeo6pmhR3szECzcMf4-21" value="" style="endArrow=classic;html=1;rounded=0;exitX=1;exitY=0.5;exitDx=0;exitDy=0;entryX=0;entryY=0.25;entryDx=0;entryDy=0;" edge="1" parent="1" source="hMoeo6pmhR3szECzcMf4-6" target="hMoeo6pmhR3szECzcMf4-85">
          <mxGeometry width="50" height="50" relative="1" as="geometry">
            <mxPoint x="1160" y="174.65999999999997" as="sourcePoint" />
            <mxPoint x="1200" y="175" as="targetPoint" />
          </mxGeometry>
        </mxCell>
        <mxCell id="hMoeo6pmhR3szECzcMf4-22" value="&lt;div&gt;Iron Plate&lt;/div&gt;(40 / min)" style="edgeLabel;html=1;align=center;verticalAlign=middle;resizable=0;points=[];fontSize=8;" vertex="1" connectable="0" parent="hMoeo6pmhR3szECzcMf4-21">
          <mxGeometry x="0.0548" y="1" relative="1" as="geometry">
            <mxPoint x="-12" y="-14" as="offset" />
          </mxGeometry>
        </mxCell>
        <mxCell id="hMoeo6pmhR3szECzcMf4-23" value="Split" style="rhombus;whiteSpace=wrap;html=1;" vertex="1" parent="1">
          <mxGeometry x="700" y="135" width="80" height="80" as="geometry" />
        </mxCell>
        <mxCell id="hMoeo6pmhR3szECzcMf4-24" value="«Smelter»&lt;br&gt;&lt;b&gt;Iron Ingot&lt;/b&gt;" style="html=1;whiteSpace=wrap;" vertex="1" parent="1">
          <mxGeometry x="330" y="210" width="110" height="50" as="geometry" />
        </mxCell>
        <mxCell id="hMoeo6pmhR3szECzcMf4-25" value="«Miner Mk. 1»&lt;br&gt;&lt;b&gt;Impure&lt;/b&gt;" style="html=1;whiteSpace=wrap;" vertex="1" parent="1">
          <mxGeometry x="140" y="210" width="110" height="50" as="geometry" />
        </mxCell>
        <mxCell id="hMoeo6pmhR3szECzcMf4-26" value="" style="endArrow=classic;html=1;rounded=0;exitX=1;exitY=0.5;exitDx=0;exitDy=0;entryX=0;entryY=0.5;entryDx=0;entryDy=0;" edge="1" parent="1" source="hMoeo6pmhR3szECzcMf4-25" target="hMoeo6pmhR3szECzcMf4-24">
          <mxGeometry width="50" height="50" relative="1" as="geometry">
            <mxPoint x="530" y="410" as="sourcePoint" />
            <mxPoint x="610" y="410" as="targetPoint" />
          </mxGeometry>
        </mxCell>
        <mxCell id="hMoeo6pmhR3szECzcMf4-27" value="Iron Ore&lt;div&gt;(30 / min)&lt;/div&gt;" style="edgeLabel;html=1;align=center;verticalAlign=middle;resizable=0;points=[];fontSize=8;" vertex="1" connectable="0" parent="hMoeo6pmhR3szECzcMf4-26">
          <mxGeometry x="0.0548" y="1" relative="1" as="geometry">
            <mxPoint y="-14" as="offset" />
          </mxGeometry>
        </mxCell>
        <mxCell id="hMoeo6pmhR3szECzcMf4-28" value="Merge" style="rhombus;whiteSpace=wrap;html=1;" vertex="1" parent="1">
          <mxGeometry x="540" y="135" width="80" height="80" as="geometry" />
        </mxCell>
        <mxCell id="hMoeo6pmhR3szECzcMf4-29" value="" style="endArrow=classic;html=1;rounded=0;exitX=1;exitY=0.5;exitDx=0;exitDy=0;entryX=0;entryY=0.5;entryDx=0;entryDy=0;" edge="1" parent="1" source="hMoeo6pmhR3szECzcMf4-10" target="hMoeo6pmhR3szECzcMf4-28">
          <mxGeometry width="50" height="50" relative="1" as="geometry">
            <mxPoint x="330" y="180" as="sourcePoint" />
            <mxPoint x="410" y="180" as="targetPoint" />
          </mxGeometry>
        </mxCell>
        <mxCell id="hMoeo6pmhR3szECzcMf4-30" value="Iron Ingot&lt;div&gt;(30 / min)&lt;/div&gt;" style="edgeLabel;html=1;align=center;verticalAlign=middle;resizable=0;points=[];fontSize=8;" vertex="1" connectable="0" parent="hMoeo6pmhR3szECzcMf4-29">
          <mxGeometry x="0.0548" y="1" relative="1" as="geometry">
            <mxPoint y="-14" as="offset" />
          </mxGeometry>
        </mxCell>
        <mxCell id="hMoeo6pmhR3szECzcMf4-31" value="" style="endArrow=classic;html=1;rounded=0;exitX=1;exitY=0.5;exitDx=0;exitDy=0;entryX=0;entryY=0.5;entryDx=0;entryDy=0;edgeStyle=orthogonalEdgeStyle;" edge="1" parent="1" source="hMoeo6pmhR3szECzcMf4-24" target="hMoeo6pmhR3szECzcMf4-28">
          <mxGeometry width="50" height="50" relative="1" as="geometry">
            <mxPoint x="560" y="280" as="sourcePoint" />
            <mxPoint x="660" y="280" as="targetPoint" />
            <Array as="points">
              <mxPoint x="520" y="235" />
              <mxPoint x="520" y="175" />
            </Array>
          </mxGeometry>
        </mxCell>
        <mxCell id="hMoeo6pmhR3szECzcMf4-32" value="Iron Ingot&lt;div&gt;(30 / min)&lt;/div&gt;" style="edgeLabel;html=1;align=center;verticalAlign=middle;resizable=0;points=[];fontSize=8;" vertex="1" connectable="0" parent="hMoeo6pmhR3szECzcMf4-31">
          <mxGeometry x="0.0548" y="1" relative="1" as="geometry">
            <mxPoint x="-29" y="-16" as="offset" />
          </mxGeometry>
        </mxCell>
        <mxCell id="hMoeo6pmhR3szECzcMf4-33" value="" style="endArrow=classic;html=1;rounded=0;exitX=1;exitY=0.5;exitDx=0;exitDy=0;entryX=0;entryY=0.5;entryDx=0;entryDy=0;" edge="1" parent="1">
          <mxGeometry width="50" height="50" relative="1" as="geometry">
            <mxPoint x="780" y="175" as="sourcePoint" />
            <mxPoint x="860" y="175" as="targetPoint" />
          </mxGeometry>
        </mxCell>
        <mxCell id="hMoeo6pmhR3szECzcMf4-34" value="Iron Ingot&lt;div&gt;(30 / min)&lt;/div&gt;" style="edgeLabel;html=1;align=center;verticalAlign=middle;resizable=0;points=[];fontSize=8;" vertex="1" connectable="0" parent="hMoeo6pmhR3szECzcMf4-33">
          <mxGeometry x="0.0548" y="1" relative="1" as="geometry">
            <mxPoint x="-2" y="-14" as="offset" />
          </mxGeometry>
        </mxCell>
        <mxCell id="hMoeo6pmhR3szECzcMf4-35" value="" style="endArrow=classic;html=1;rounded=0;exitX=1;exitY=0.5;exitDx=0;exitDy=0;entryX=0;entryY=0.5;entryDx=0;entryDy=0;edgeStyle=orthogonalEdgeStyle;" edge="1" parent="1">
          <mxGeometry width="50" height="50" relative="1" as="geometry">
            <mxPoint x="780" y="175" as="sourcePoint" />
            <mxPoint x="860" y="235" as="targetPoint" />
            <Array as="points">
              <mxPoint x="790" y="175" />
              <mxPoint x="790" y="235" />
            </Array>
          </mxGeometry>
        </mxCell>
        <mxCell id="hMoeo6pmhR3szECzcMf4-36" value="Iron Ingot&lt;div&gt;(30 / min)&lt;/div&gt;" style="edgeLabel;html=1;align=center;verticalAlign=middle;resizable=0;points=[];fontSize=8;" vertex="1" connectable="0" parent="hMoeo6pmhR3szECzcMf4-35">
          <mxGeometry x="0.0548" y="1" relative="1" as="geometry">
            <mxPoint x="36" y="-14" as="offset" />
          </mxGeometry>
        </mxCell>
        <mxCell id="hMoeo6pmhR3szECzcMf4-37" value="Iron Ingot Production" style="rounded=0;whiteSpace=wrap;html=1;dashed=1;dashPattern=8 8;fillColor=#f5f5f5;fontColor=#333333;strokeColor=#666666;align=right;verticalAlign=bottom;fontStyle=1" vertex="1" parent="1">
          <mxGeometry x="120" y="360" width="500" height="184" as="geometry" />
        </mxCell>
        <mxCell id="hMoeo6pmhR3szECzcMf4-38" value="«Smelter»&lt;br&gt;&lt;b&gt;Iron Ingot&lt;/b&gt;" style="html=1;whiteSpace=wrap;" vertex="1" parent="1">
          <mxGeometry x="330" y="470" width="110" height="50" as="geometry" />
        </mxCell>
        <mxCell id="hMoeo6pmhR3szECzcMf4-39" value="«Miner Mk. 1»&lt;br&gt;&lt;b&gt;Impure&lt;/b&gt;" style="html=1;whiteSpace=wrap;" vertex="1" parent="1">
          <mxGeometry x="140" y="470" width="110" height="50" as="geometry" />
        </mxCell>
        <mxCell id="hMoeo6pmhR3szECzcMf4-40" value="" style="endArrow=classic;html=1;rounded=0;exitX=1;exitY=0.5;exitDx=0;exitDy=0;entryX=0;entryY=0.5;entryDx=0;entryDy=0;" edge="1" parent="1" source="hMoeo6pmhR3szECzcMf4-39" target="hMoeo6pmhR3szECzcMf4-38">
          <mxGeometry width="50" height="50" relative="1" as="geometry">
            <mxPoint x="530" y="670" as="sourcePoint" />
            <mxPoint x="610" y="670" as="targetPoint" />
          </mxGeometry>
        </mxCell>
        <mxCell id="hMoeo6pmhR3szECzcMf4-41" value="30 / min" style="edgeLabel;html=1;align=center;verticalAlign=middle;resizable=0;points=[];" vertex="1" connectable="0" parent="hMoeo6pmhR3szECzcMf4-40">
          <mxGeometry x="0.0548" y="1" relative="1" as="geometry">
            <mxPoint y="-14" as="offset" />
          </mxGeometry>
        </mxCell>
        <mxCell id="hMoeo6pmhR3szECzcMf4-42" value="«Miner Mk. 1»&lt;br&gt;&lt;b&gt;Normal&lt;/b&gt;" style="html=1;whiteSpace=wrap;" vertex="1" parent="1">
          <mxGeometry x="140" y="380" width="110" height="50" as="geometry" />
        </mxCell>
        <mxCell id="hMoeo6pmhR3szECzcMf4-43" value="" style="endArrow=classic;html=1;rounded=0;exitX=1;exitY=0.5;exitDx=0;exitDy=0;" edge="1" parent="1" source="hMoeo6pmhR3szECzcMf4-42">
          <mxGeometry width="50" height="50" relative="1" as="geometry">
            <mxPoint x="390" y="490" as="sourcePoint" />
            <mxPoint x="330" y="405" as="targetPoint" />
          </mxGeometry>
        </mxCell>
        <mxCell id="hMoeo6pmhR3szECzcMf4-44" value="60 / min" style="edgeLabel;html=1;align=center;verticalAlign=middle;resizable=0;points=[];" vertex="1" connectable="0" parent="hMoeo6pmhR3szECzcMf4-43">
          <mxGeometry x="0.0548" y="1" relative="1" as="geometry">
            <mxPoint y="-14" as="offset" />
          </mxGeometry>
        </mxCell>
        <mxCell id="hMoeo6pmhR3szECzcMf4-45" value="&lt;b&gt;Power Usage: 9 MW&lt;/b&gt;&lt;div&gt;&lt;b&gt;&lt;br&gt;&lt;/b&gt;&lt;div&gt;- Miner (5 MW): 1 x 5 MW = 5 MW&lt;/div&gt;&lt;div&gt;- Smelter (4 MW): 1 x 4 MW = 4 MW&lt;/div&gt;&lt;/div&gt;" style="rounded=0;whiteSpace=wrap;html=1;align=left;verticalAlign=top;fillColor=#dae8fc;strokeColor=#6c8ebf;fontSize=8;" vertex="1" parent="1">
          <mxGeometry x="470" y="370" width="140" height="50" as="geometry" />
        </mxCell>
        <mxCell id="hMoeo6pmhR3szECzcMf4-46" value="Screws Production" style="rounded=0;whiteSpace=wrap;html=1;dashed=1;dashPattern=8 8;fillColor=#f5f5f5;fontColor=#333333;strokeColor=#666666;align=right;verticalAlign=bottom;fontStyle=1" vertex="1" parent="1">
          <mxGeometry x="1195" y="435" width="460" height="210" as="geometry" />
        </mxCell>
        <mxCell id="hMoeo6pmhR3szECzcMf4-47" value="Iron Rod Production" style="rounded=0;whiteSpace=wrap;html=1;dashed=1;dashPattern=8 8;fillColor=#f5f5f5;fontColor=#333333;strokeColor=#666666;align=right;verticalAlign=bottom;fontStyle=1" vertex="1" parent="1">
          <mxGeometry x="680" y="435" width="460" height="210" as="geometry" />
        </mxCell>
        <mxCell id="hMoeo6pmhR3szECzcMf4-48" value="«Constructor»&lt;br&gt;&lt;b&gt;Iron Rod&lt;/b&gt;" style="html=1;whiteSpace=wrap;" vertex="1" parent="1">
          <mxGeometry x="860" y="470" width="110" height="50" as="geometry" />
        </mxCell>
        <mxCell id="hMoeo6pmhR3szECzcMf4-49" value="" style="endArrow=classic;html=1;rounded=0;exitX=1;exitY=0.5;exitDx=0;exitDy=0;" edge="1" parent="1" source="hMoeo6pmhR3szECzcMf4-48">
          <mxGeometry width="50" height="50" relative="1" as="geometry">
            <mxPoint x="970" y="494.76" as="sourcePoint" />
            <mxPoint x="1050" y="495" as="targetPoint" />
          </mxGeometry>
        </mxCell>
        <mxCell id="hMoeo6pmhR3szECzcMf4-50" value="15 / min" style="edgeLabel;html=1;align=center;verticalAlign=middle;resizable=0;points=[];" vertex="1" connectable="0" parent="hMoeo6pmhR3szECzcMf4-49">
          <mxGeometry x="-0.0519" y="-2" relative="1" as="geometry">
            <mxPoint x="-7" y="-17" as="offset" />
          </mxGeometry>
        </mxCell>
        <mxCell id="hMoeo6pmhR3szECzcMf4-51" value="Merge" style="rhombus;whiteSpace=wrap;html=1;" vertex="1" parent="1">
          <mxGeometry x="1050" y="455" width="80" height="80" as="geometry" />
        </mxCell>
        <mxCell id="hMoeo6pmhR3szECzcMf4-52" value="«Constructor»&lt;br&gt;&lt;b&gt;Iron Rod&lt;/b&gt;" style="html=1;whiteSpace=wrap;" vertex="1" parent="1">
          <mxGeometry x="860" y="530" width="110" height="50" as="geometry" />
        </mxCell>
        <mxCell id="hMoeo6pmhR3szECzcMf4-53" value="" style="endArrow=classic;html=1;rounded=0;exitX=1;exitY=0.5;exitDx=0;exitDy=0;entryX=0;entryY=0.5;entryDx=0;entryDy=0;edgeStyle=orthogonalEdgeStyle;" edge="1" parent="1" source="hMoeo6pmhR3szECzcMf4-52" target="hMoeo6pmhR3szECzcMf4-51">
          <mxGeometry width="50" height="50" relative="1" as="geometry">
            <mxPoint x="1140" y="710" as="sourcePoint" />
            <mxPoint x="1217" y="710" as="targetPoint" />
            <Array as="points">
              <mxPoint x="1030" y="555" />
              <mxPoint x="1030" y="495" />
            </Array>
          </mxGeometry>
        </mxCell>
        <mxCell id="hMoeo6pmhR3szECzcMf4-54" value="15 / min" style="edgeLabel;html=1;align=center;verticalAlign=middle;resizable=0;points=[];" vertex="1" connectable="0" parent="hMoeo6pmhR3szECzcMf4-53">
          <mxGeometry x="-0.0519" y="-2" relative="1" as="geometry">
            <mxPoint x="-32" y="-9" as="offset" />
          </mxGeometry>
        </mxCell>
        <mxCell id="hMoeo6pmhR3szECzcMf4-55" value="" style="endArrow=classic;html=1;rounded=0;entryX=0;entryY=0.5;entryDx=0;entryDy=0;exitX=1;exitY=0.5;exitDx=0;exitDy=0;" edge="1" parent="1" source="hMoeo6pmhR3szECzcMf4-57" target="hMoeo6pmhR3szECzcMf4-48">
          <mxGeometry width="50" height="50" relative="1" as="geometry">
            <mxPoint x="790" y="495" as="sourcePoint" />
            <mxPoint x="1030" y="560" as="targetPoint" />
          </mxGeometry>
        </mxCell>
        <mxCell id="hMoeo6pmhR3szECzcMf4-56" value="15 / min" style="edgeLabel;html=1;align=center;verticalAlign=middle;resizable=0;points=[];" vertex="1" connectable="0" parent="hMoeo6pmhR3szECzcMf4-55">
          <mxGeometry x="0.219" y="1" relative="1" as="geometry">
            <mxPoint x="1" y="-14" as="offset" />
          </mxGeometry>
        </mxCell>
        <mxCell id="hMoeo6pmhR3szECzcMf4-57" value="Split" style="rhombus;whiteSpace=wrap;html=1;" vertex="1" parent="1">
          <mxGeometry x="700" y="455" width="80" height="80" as="geometry" />
        </mxCell>
        <mxCell id="hMoeo6pmhR3szECzcMf4-58" value="" style="endArrow=classic;html=1;rounded=0;entryX=0;entryY=0.5;entryDx=0;entryDy=0;exitX=1;exitY=0.5;exitDx=0;exitDy=0;edgeStyle=orthogonalEdgeStyle;" edge="1" parent="1" source="hMoeo6pmhR3szECzcMf4-57" target="hMoeo6pmhR3szECzcMf4-52">
          <mxGeometry width="50" height="50" relative="1" as="geometry">
            <mxPoint x="820" y="640" as="sourcePoint" />
            <mxPoint x="880" y="640" as="targetPoint" />
            <Array as="points">
              <mxPoint x="790" y="495" />
              <mxPoint x="790" y="555" />
            </Array>
          </mxGeometry>
        </mxCell>
        <mxCell id="hMoeo6pmhR3szECzcMf4-59" value="15 / min" style="edgeLabel;html=1;align=center;verticalAlign=middle;resizable=0;points=[];" vertex="1" connectable="0" parent="hMoeo6pmhR3szECzcMf4-58">
          <mxGeometry x="0.219" y="1" relative="1" as="geometry">
            <mxPoint x="25" y="-19" as="offset" />
          </mxGeometry>
        </mxCell>
        <mxCell id="hMoeo6pmhR3szECzcMf4-60" value="" style="endArrow=classic;html=1;rounded=0;exitX=1;exitY=0.5;exitDx=0;exitDy=0;entryX=0;entryY=0.5;entryDx=0;entryDy=0;" edge="1" parent="1" source="hMoeo6pmhR3szECzcMf4-51" target="hMoeo6pmhR3szECzcMf4-63">
          <mxGeometry width="50" height="50" relative="1" as="geometry">
            <mxPoint x="1310" y="615" as="sourcePoint" />
            <mxPoint x="1210" y="495" as="targetPoint" />
          </mxGeometry>
        </mxCell>
        <mxCell id="hMoeo6pmhR3szECzcMf4-61" value="Iron Rod&lt;div&gt;(30 / min)&lt;/div&gt;" style="edgeLabel;html=1;align=center;verticalAlign=middle;resizable=0;points=[];" vertex="1" connectable="0" parent="hMoeo6pmhR3szECzcMf4-60">
          <mxGeometry x="0.0667" relative="1" as="geometry">
            <mxPoint x="-2" y="-25" as="offset" />
          </mxGeometry>
        </mxCell>
        <mxCell id="hMoeo6pmhR3szECzcMf4-62" value="&lt;b&gt;Power Usage: 8 MW&lt;/b&gt;&lt;div&gt;&lt;b&gt;&lt;br&gt;&lt;/b&gt;&lt;div&gt;- Constructor (4 MW): 2 x 4 MW = 8 MW&lt;/div&gt;&lt;/div&gt;" style="rounded=0;whiteSpace=wrap;html=1;align=left;verticalAlign=top;fillColor=#dae8fc;strokeColor=#6c8ebf;fontSize=8;" vertex="1" parent="1">
          <mxGeometry x="690" y="586" width="160" height="50" as="geometry" />
        </mxCell>
        <mxCell id="hMoeo6pmhR3szECzcMf4-63" value="Split" style="rhombus;whiteSpace=wrap;html=1;" vertex="1" parent="1">
          <mxGeometry x="1210" y="455" width="80" height="80" as="geometry" />
        </mxCell>
        <mxCell id="hMoeo6pmhR3szECzcMf4-64" value="«Constructor»&lt;br&gt;&lt;b&gt;Screws&lt;/b&gt;" style="html=1;whiteSpace=wrap;" vertex="1" parent="1">
          <mxGeometry x="1370" y="465" width="110" height="50" as="geometry" />
        </mxCell>
        <mxCell id="hMoeo6pmhR3szECzcMf4-65" value="«Constructor»&lt;br&gt;&lt;b&gt;Screws&lt;/b&gt;" style="html=1;whiteSpace=wrap;" vertex="1" parent="1">
          <mxGeometry x="1370" y="525" width="110" height="50" as="geometry" />
        </mxCell>
        <mxCell id="hMoeo6pmhR3szECzcMf4-66" value="«Constructor»&lt;br&gt;&lt;b&gt;Screws&lt;/b&gt;" style="html=1;whiteSpace=wrap;" vertex="1" parent="1">
          <mxGeometry x="1370" y="586" width="110" height="50" as="geometry" />
        </mxCell>
        <mxCell id="hMoeo6pmhR3szECzcMf4-67" value="" style="endArrow=classic;html=1;rounded=0;exitX=1;exitY=0.5;exitDx=0;exitDy=0;entryX=0;entryY=0.5;entryDx=0;entryDy=0;edgeStyle=orthogonalEdgeStyle;" edge="1" parent="1" source="hMoeo6pmhR3szECzcMf4-63" target="hMoeo6pmhR3szECzcMf4-64">
          <mxGeometry width="50" height="50" relative="1" as="geometry">
            <mxPoint x="1360" y="535" as="sourcePoint" />
            <mxPoint x="1410" y="485" as="targetPoint" />
            <Array as="points">
              <mxPoint x="1300" y="495" />
              <mxPoint x="1300" y="490" />
            </Array>
          </mxGeometry>
        </mxCell>
        <mxCell id="hMoeo6pmhR3szECzcMf4-68" value="Iron Rod&lt;div&gt;(10 / min)&lt;/div&gt;" style="edgeLabel;html=1;align=center;verticalAlign=middle;resizable=0;points=[];" vertex="1" connectable="0" parent="hMoeo6pmhR3szECzcMf4-67">
          <mxGeometry x="0.3058" y="1" relative="1" as="geometry">
            <mxPoint x="-1" y="-19" as="offset" />
          </mxGeometry>
        </mxCell>
        <mxCell id="hMoeo6pmhR3szECzcMf4-69" value="" style="endArrow=classic;html=1;rounded=0;exitX=1;exitY=0.5;exitDx=0;exitDy=0;entryX=0;entryY=0.5;entryDx=0;entryDy=0;edgeStyle=orthogonalEdgeStyle;" edge="1" parent="1" source="hMoeo6pmhR3szECzcMf4-63" target="hMoeo6pmhR3szECzcMf4-65">
          <mxGeometry width="50" height="50" relative="1" as="geometry">
            <mxPoint x="1380" y="640" as="sourcePoint" />
            <mxPoint x="1460" y="635" as="targetPoint" />
            <Array as="points">
              <mxPoint x="1300" y="495" />
              <mxPoint x="1300" y="550" />
            </Array>
          </mxGeometry>
        </mxCell>
        <mxCell id="hMoeo6pmhR3szECzcMf4-70" value="Iron Rod&lt;div&gt;(10 / min)&lt;/div&gt;" style="edgeLabel;html=1;align=center;verticalAlign=middle;resizable=0;points=[];" vertex="1" connectable="0" parent="hMoeo6pmhR3szECzcMf4-69">
          <mxGeometry x="0.3058" y="1" relative="1" as="geometry">
            <mxPoint x="17" y="-19" as="offset" />
          </mxGeometry>
        </mxCell>
        <mxCell id="hMoeo6pmhR3szECzcMf4-71" value="" style="endArrow=classic;html=1;rounded=0;exitX=1;exitY=0.5;exitDx=0;exitDy=0;entryX=0;entryY=0.5;entryDx=0;entryDy=0;edgeStyle=orthogonalEdgeStyle;" edge="1" parent="1" source="hMoeo6pmhR3szECzcMf4-63" target="hMoeo6pmhR3szECzcMf4-66">
          <mxGeometry width="50" height="50" relative="1" as="geometry">
            <mxPoint x="1310" y="665" as="sourcePoint" />
            <mxPoint x="1390" y="720" as="targetPoint" />
            <Array as="points">
              <mxPoint x="1300" y="495" />
              <mxPoint x="1300" y="611" />
            </Array>
          </mxGeometry>
        </mxCell>
        <mxCell id="hMoeo6pmhR3szECzcMf4-72" value="Iron Rod&lt;div&gt;(10 / min)&lt;/div&gt;" style="edgeLabel;html=1;align=center;verticalAlign=middle;resizable=0;points=[];" vertex="1" connectable="0" parent="hMoeo6pmhR3szECzcMf4-71">
          <mxGeometry x="0.3058" y="1" relative="1" as="geometry">
            <mxPoint x="37" y="-19" as="offset" />
          </mxGeometry>
        </mxCell>
        <mxCell id="hMoeo6pmhR3szECzcMf4-73" value="" style="endArrow=classic;html=1;rounded=0;exitX=1;exitY=0.5;exitDx=0;exitDy=0;entryX=0;entryY=0.5;entryDx=0;entryDy=0;" edge="1" parent="1" source="hMoeo6pmhR3szECzcMf4-64" target="hMoeo6pmhR3szECzcMf4-79">
          <mxGeometry width="50" height="50" relative="1" as="geometry">
            <mxPoint x="1670" y="565" as="sourcePoint" />
            <mxPoint x="1580" y="490" as="targetPoint" />
          </mxGeometry>
        </mxCell>
        <mxCell id="hMoeo6pmhR3szECzcMf4-74" value="40 / min" style="edgeLabel;html=1;align=center;verticalAlign=middle;resizable=0;points=[];" vertex="1" connectable="0" parent="hMoeo6pmhR3szECzcMf4-73">
          <mxGeometry x="-0.0519" y="-2" relative="1" as="geometry">
            <mxPoint x="-8" y="-17" as="offset" />
          </mxGeometry>
        </mxCell>
        <mxCell id="hMoeo6pmhR3szECzcMf4-75" value="" style="endArrow=classic;html=1;rounded=0;exitX=1;exitY=0.5;exitDx=0;exitDy=0;entryX=0;entryY=0.5;entryDx=0;entryDy=0;edgeStyle=orthogonalEdgeStyle;" edge="1" parent="1" source="hMoeo6pmhR3szECzcMf4-65" target="hMoeo6pmhR3szECzcMf4-79">
          <mxGeometry width="50" height="50" relative="1" as="geometry">
            <mxPoint x="1650" y="615" as="sourcePoint" />
            <mxPoint x="1563.12" y="548.7199999999998" as="targetPoint" />
            <Array as="points">
              <mxPoint x="1540" y="550" />
              <mxPoint x="1540" y="490" />
            </Array>
          </mxGeometry>
        </mxCell>
        <mxCell id="hMoeo6pmhR3szECzcMf4-76" value="40 / min" style="edgeLabel;html=1;align=center;verticalAlign=middle;resizable=0;points=[];" vertex="1" connectable="0" parent="hMoeo6pmhR3szECzcMf4-75">
          <mxGeometry x="-0.0519" y="-2" relative="1" as="geometry">
            <mxPoint x="-32" y="-9" as="offset" />
          </mxGeometry>
        </mxCell>
        <mxCell id="hMoeo6pmhR3szECzcMf4-77" value="" style="endArrow=classic;html=1;rounded=0;exitX=1;exitY=0.5;exitDx=0;exitDy=0;entryX=0;entryY=0.5;entryDx=0;entryDy=0;edgeStyle=orthogonalEdgeStyle;" edge="1" parent="1" source="hMoeo6pmhR3szECzcMf4-66" target="hMoeo6pmhR3szECzcMf4-79">
          <mxGeometry width="50" height="50" relative="1" as="geometry">
            <mxPoint x="1580" y="645" as="sourcePoint" />
            <mxPoint x="1680" y="611" as="targetPoint" />
            <Array as="points">
              <mxPoint x="1540" y="611" />
              <mxPoint x="1540" y="490" />
            </Array>
          </mxGeometry>
        </mxCell>
        <mxCell id="hMoeo6pmhR3szECzcMf4-78" value="40 / min" style="edgeLabel;html=1;align=center;verticalAlign=middle;resizable=0;points=[];" vertex="1" connectable="0" parent="hMoeo6pmhR3szECzcMf4-77">
          <mxGeometry x="-0.0519" y="-2" relative="1" as="geometry">
            <mxPoint x="-32" y="19" as="offset" />
          </mxGeometry>
        </mxCell>
        <mxCell id="hMoeo6pmhR3szECzcMf4-79" value="Merge" style="rhombus;whiteSpace=wrap;html=1;" vertex="1" parent="1">
          <mxGeometry x="1560" y="450" width="80" height="80" as="geometry" />
        </mxCell>
        <mxCell id="hMoeo6pmhR3szECzcMf4-80" value="&lt;b&gt;Power Usage: 12 MW&lt;/b&gt;&lt;div&gt;&lt;b&gt;&lt;br&gt;&lt;/b&gt;&lt;div&gt;- Constructor (4 MW): 3 x 4 MW = 12 MW&lt;/div&gt;&lt;/div&gt;" style="rounded=0;whiteSpace=wrap;html=1;align=left;verticalAlign=top;fillColor=#dae8fc;strokeColor=#6c8ebf;fontSize=8;" vertex="1" parent="1">
          <mxGeometry x="1205" y="586" width="85" height="50" as="geometry" />
        </mxCell>
        <mxCell id="hMoeo6pmhR3szECzcMf4-81" value="" style="endArrow=classic;html=1;rounded=0;exitX=1;exitY=0.5;exitDx=0;exitDy=0;entryX=0;entryY=0.5;entryDx=0;entryDy=0;" edge="1" parent="1" source="hMoeo6pmhR3szECzcMf4-38" target="hMoeo6pmhR3szECzcMf4-57">
          <mxGeometry width="50" height="50" relative="1" as="geometry">
            <mxPoint x="630" y="750" as="sourcePoint" />
            <mxPoint x="710" y="750" as="targetPoint" />
          </mxGeometry>
        </mxCell>
        <mxCell id="hMoeo6pmhR3szECzcMf4-82" value="30 / min" style="edgeLabel;html=1;align=center;verticalAlign=middle;resizable=0;points=[];" vertex="1" connectable="0" parent="hMoeo6pmhR3szECzcMf4-81">
          <mxGeometry x="0.0548" y="1" relative="1" as="geometry">
            <mxPoint y="-14" as="offset" />
          </mxGeometry>
        </mxCell>
        <mxCell id="hMoeo6pmhR3szECzcMf4-83" value="" style="endArrow=classic;html=1;rounded=0;strokeColor=#FF0000;exitX=1;exitY=0.5;exitDx=0;exitDy=0;entryX=0;entryY=0.5;entryDx=0;entryDy=0;entryPerimeter=0;" edge="1" parent="1" source="hMoeo6pmhR3szECzcMf4-79" target="hMoeo6pmhR3szECzcMf4-95">
          <mxGeometry width="50" height="50" relative="1" as="geometry">
            <mxPoint x="950" y="920" as="sourcePoint" />
            <mxPoint x="1740" y="490" as="targetPoint" />
          </mxGeometry>
        </mxCell>
        <mxCell id="hMoeo6pmhR3szECzcMf4-84" value="Screws&lt;div&gt;(120/min)&lt;/div&gt;" style="edgeLabel;html=1;align=center;verticalAlign=middle;resizable=0;points=[];" vertex="1" connectable="0" parent="hMoeo6pmhR3szECzcMf4-83">
          <mxGeometry x="0.32" y="1" relative="1" as="geometry">
            <mxPoint x="-6" y="-19" as="offset" />
          </mxGeometry>
        </mxCell>
        <mxCell id="hMoeo6pmhR3szECzcMf4-85" value="«Assembler»&lt;br&gt;&lt;b&gt;Reinforced Iron Plate&lt;/b&gt;" style="html=1;whiteSpace=wrap;" vertex="1" parent="1">
          <mxGeometry x="1890" y="390" width="110" height="50" as="geometry" />
        </mxCell>
        <mxCell id="hMoeo6pmhR3szECzcMf4-86" value="" style="endArrow=classic;html=1;rounded=0;exitX=1;exitY=0.5;exitDx=0;exitDy=0;" edge="1" parent="1" source="hMoeo6pmhR3szECzcMf4-85">
          <mxGeometry width="50" height="50" relative="1" as="geometry">
            <mxPoint x="1830" y="650" as="sourcePoint" />
            <mxPoint x="2090" y="415" as="targetPoint" />
          </mxGeometry>
        </mxCell>
        <mxCell id="hMoeo6pmhR3szECzcMf4-87" value="5 / min" style="edgeLabel;html=1;align=center;verticalAlign=middle;resizable=0;points=[];" vertex="1" connectable="0" parent="hMoeo6pmhR3szECzcMf4-86">
          <mxGeometry x="-0.0519" y="-2" relative="1" as="geometry">
            <mxPoint y="-17" as="offset" />
          </mxGeometry>
        </mxCell>
        <mxCell id="hMoeo6pmhR3szECzcMf4-94" value="&lt;b&gt;Power Usage: 15 MW&lt;/b&gt;&lt;div&gt;&lt;b&gt;&lt;br&gt;&lt;/b&gt;&lt;div&gt;- Assembler (15 MW): 1 x 15 MW = 15 MW&lt;/div&gt;&lt;/div&gt;" style="rounded=0;whiteSpace=wrap;html=1;align=left;verticalAlign=top;fillColor=#dae8fc;strokeColor=#6c8ebf;fontSize=8;" vertex="1" parent="1">
          <mxGeometry x="1890" y="290" width="160" height="50" as="geometry" />
        </mxCell>
        <mxCell id="hMoeo6pmhR3szECzcMf4-95" value="Split" style="rhombus;whiteSpace=wrap;html=1;" vertex="1" parent="1">
          <mxGeometry x="1740" y="450" width="80" height="80" as="geometry" />
        </mxCell>
        <mxCell id="hMoeo6pmhR3szECzcMf4-96" value="" style="endArrow=classic;html=1;rounded=0;exitX=1;exitY=0.5;exitDx=0;exitDy=0;entryX=0;entryY=0.75;entryDx=0;entryDy=0;" edge="1" parent="1" source="hMoeo6pmhR3szECzcMf4-95" target="hMoeo6pmhR3szECzcMf4-85">
          <mxGeometry width="50" height="50" relative="1" as="geometry">
            <mxPoint x="1640" y="620" as="sourcePoint" />
            <mxPoint x="1720" y="620" as="targetPoint" />
          </mxGeometry>
        </mxCell>
        <mxCell id="hMoeo6pmhR3szECzcMf4-97" value="Screws&lt;div&gt;(60 / min)&lt;/div&gt;" style="edgeLabel;html=1;align=center;verticalAlign=middle;resizable=0;points=[];" vertex="1" connectable="0" parent="hMoeo6pmhR3szECzcMf4-96">
          <mxGeometry x="0.0667" relative="1" as="geometry">
            <mxPoint x="-2" y="-25" as="offset" />
          </mxGeometry>
        </mxCell>
        <mxCell id="hMoeo6pmhR3szECzcMf4-98" value="&lt;b&gt;Storage Container&lt;/b&gt;" style="html=1;whiteSpace=wrap;" vertex="1" parent="1">
          <mxGeometry x="1890" y="520" width="110" height="50" as="geometry" />
        </mxCell>
        <mxCell id="hMoeo6pmhR3szECzcMf4-99" value="" style="endArrow=classic;html=1;rounded=0;exitX=1;exitY=0.5;exitDx=0;exitDy=0;entryX=0;entryY=0.5;entryDx=0;entryDy=0;" edge="1" parent="1" source="hMoeo6pmhR3szECzcMf4-95" target="hMoeo6pmhR3szECzcMf4-98">
          <mxGeometry width="50" height="50" relative="1" as="geometry">
            <mxPoint x="2080" y="712" as="sourcePoint" />
            <mxPoint x="2150" y="650" as="targetPoint" />
          </mxGeometry>
        </mxCell>
        <mxCell id="hMoeo6pmhR3szECzcMf4-100" value="Screws&lt;div&gt;(60 / min)&lt;/div&gt;" style="edgeLabel;html=1;align=center;verticalAlign=middle;resizable=0;points=[];" vertex="1" connectable="0" parent="hMoeo6pmhR3szECzcMf4-99">
          <mxGeometry x="0.0667" relative="1" as="geometry">
            <mxPoint x="-2" y="-25" as="offset" />
          </mxGeometry>
        </mxCell>
        <mxCell id="hMoeo6pmhR3szECzcMf4-101" value="Foundations" parent="0" />
        <mxCell id="hMoeo6pmhR3szECzcMf4-103" value="" style="whiteSpace=wrap;html=1;aspect=fixed;strokeColor=#808080;fillColor=#CCE5FF;" vertex="1" parent="hMoeo6pmhR3szECzcMf4-101">
          <mxGeometry x="1304" y="790" width="80" height="80" as="geometry" />
        </mxCell>
        <mxCell id="hMoeo6pmhR3szECzcMf4-104" value="" style="whiteSpace=wrap;html=1;aspect=fixed;strokeColor=#808080;fillColor=#CCE5FF;" vertex="1" parent="hMoeo6pmhR3szECzcMf4-101">
          <mxGeometry x="1304" y="870" width="80" height="80" as="geometry" />
        </mxCell>
        <mxCell id="hMoeo6pmhR3szECzcMf4-105" value="" style="whiteSpace=wrap;html=1;aspect=fixed;strokeColor=#808080;fillColor=#CCE5FF;" vertex="1" parent="hMoeo6pmhR3szECzcMf4-101">
          <mxGeometry x="1384" y="790" width="80" height="80" as="geometry" />
        </mxCell>
        <mxCell id="hMoeo6pmhR3szECzcMf4-106" value="" style="whiteSpace=wrap;html=1;aspect=fixed;strokeColor=#808080;fillColor=#CCE5FF;" vertex="1" parent="hMoeo6pmhR3szECzcMf4-101">
          <mxGeometry x="1464" y="790" width="80" height="80" as="geometry" />
        </mxCell>
        <mxCell id="hMoeo6pmhR3szECzcMf4-107" value="" style="whiteSpace=wrap;html=1;aspect=fixed;strokeColor=#808080;fillColor=#CCE5FF;" vertex="1" parent="hMoeo6pmhR3szECzcMf4-101">
          <mxGeometry x="1384" y="870" width="80" height="80" as="geometry" />
        </mxCell>
        <mxCell id="hMoeo6pmhR3szECzcMf4-108" value="" style="whiteSpace=wrap;html=1;aspect=fixed;strokeColor=#808080;fillColor=#CCE5FF;" vertex="1" parent="hMoeo6pmhR3szECzcMf4-101">
          <mxGeometry x="1464" y="870" width="80" height="80" as="geometry" />
        </mxCell>
        <mxCell id="hMoeo6pmhR3szECzcMf4-109" value="" style="whiteSpace=wrap;html=1;aspect=fixed;strokeColor=#808080;fillColor=#CCE5FF;" vertex="1" parent="hMoeo6pmhR3szECzcMf4-101">
          <mxGeometry x="1544" y="790" width="80" height="80" as="geometry" />
        </mxCell>
        <mxCell id="hMoeo6pmhR3szECzcMf4-110" value="" style="whiteSpace=wrap;html=1;aspect=fixed;strokeColor=#808080;fillColor=#CCE5FF;" vertex="1" parent="hMoeo6pmhR3szECzcMf4-101">
          <mxGeometry x="1544" y="870" width="80" height="80" as="geometry" />
        </mxCell>
        <mxCell id="hMoeo6pmhR3szECzcMf4-111" value="" style="whiteSpace=wrap;html=1;aspect=fixed;strokeColor=#808080;fillColor=#CCE5FF;" vertex="1" parent="hMoeo6pmhR3szECzcMf4-101">
          <mxGeometry x="1304" y="710" width="80" height="80" as="geometry" />
        </mxCell>
        <mxCell id="hMoeo6pmhR3szECzcMf4-112" value="" style="whiteSpace=wrap;html=1;aspect=fixed;strokeColor=#808080;fillColor=#CCE5FF;" vertex="1" parent="hMoeo6pmhR3szECzcMf4-101">
          <mxGeometry x="1384" y="710" width="80" height="80" as="geometry" />
        </mxCell>
        <mxCell id="hMoeo6pmhR3szECzcMf4-113" value="" style="whiteSpace=wrap;html=1;aspect=fixed;strokeColor=#808080;fillColor=#CCE5FF;" vertex="1" parent="hMoeo6pmhR3szECzcMf4-101">
          <mxGeometry x="1464" y="710" width="80" height="80" as="geometry" />
        </mxCell>
        <mxCell id="hMoeo6pmhR3szECzcMf4-114" value="" style="whiteSpace=wrap;html=1;aspect=fixed;strokeColor=#808080;fillColor=#CCE5FF;" vertex="1" parent="hMoeo6pmhR3szECzcMf4-101">
          <mxGeometry x="1544" y="710" width="80" height="80" as="geometry" />
        </mxCell>
        <mxCell id="hMoeo6pmhR3szECzcMf4-115" value="" style="whiteSpace=wrap;html=1;aspect=fixed;strokeColor=#808080;fillColor=#CCE5FF;" vertex="1" parent="hMoeo6pmhR3szECzcMf4-101">
          <mxGeometry x="1304" y="950" width="80" height="80" as="geometry" />
        </mxCell>
        <mxCell id="hMoeo6pmhR3szECzcMf4-116" value="" style="whiteSpace=wrap;html=1;aspect=fixed;strokeColor=#808080;fillColor=#CCE5FF;" vertex="1" parent="hMoeo6pmhR3szECzcMf4-101">
          <mxGeometry x="1384" y="950" width="80" height="80" as="geometry" />
        </mxCell>
        <mxCell id="hMoeo6pmhR3szECzcMf4-117" value="" style="whiteSpace=wrap;html=1;aspect=fixed;strokeColor=#808080;fillColor=#CCE5FF;" vertex="1" parent="hMoeo6pmhR3szECzcMf4-101">
          <mxGeometry x="1464" y="950" width="80" height="80" as="geometry" />
        </mxCell>
        <mxCell id="hMoeo6pmhR3szECzcMf4-118" value="" style="whiteSpace=wrap;html=1;aspect=fixed;strokeColor=#808080;fillColor=#CCE5FF;" vertex="1" parent="hMoeo6pmhR3szECzcMf4-101">
          <mxGeometry x="1544" y="950" width="80" height="80" as="geometry" />
        </mxCell>
        <mxCell id="hMoeo6pmhR3szECzcMf4-119" value="" style="rounded=0;whiteSpace=wrap;html=1;fillColor=#f5f5f5;strokeColor=#666666;fontSize=6;fontColor=#333333;" vertex="1" parent="hMoeo6pmhR3szECzcMf4-101">
          <mxGeometry x="1274" y="760" width="40" height="20" as="geometry" />
        </mxCell>
        <mxCell id="hMoeo6pmhR3szECzcMf4-120" value="&lt;b&gt;Splitter&lt;/b&gt;&lt;div&gt;(w x l)&lt;/div&gt;&lt;div&gt;8 m x 10 m&lt;/div&gt;" style="rounded=0;whiteSpace=wrap;html=1;fillColor=#ffe6cc;strokeColor=#d79b00;fontSize=6;" vertex="1" parent="hMoeo6pmhR3szECzcMf4-101">
          <mxGeometry x="1314" y="850" width="40" height="40" as="geometry" />
        </mxCell>
        <mxCell id="hMoeo6pmhR3szECzcMf4-121" value="" style="rounded=0;whiteSpace=wrap;html=1;fillColor=#f5f5f5;strokeColor=#666666;fontSize=6;fontColor=#333333;" vertex="1" parent="hMoeo6pmhR3szECzcMf4-101">
          <mxGeometry x="1354" y="860" width="50" height="20" as="geometry" />
        </mxCell>
        <mxCell id="hMoeo6pmhR3szECzcMf4-122" value="&lt;b&gt;Constructor&lt;/b&gt;&lt;div&gt;(w x l)&lt;/div&gt;&lt;div&gt;8 m x 10 m&lt;/div&gt;" style="rounded=0;whiteSpace=wrap;html=1;fillColor=#e1d5e7;strokeColor=#9673a6;fontSize=6;" vertex="1" parent="hMoeo6pmhR3szECzcMf4-101">
          <mxGeometry x="1404" y="830" width="100" height="80" as="geometry" />
        </mxCell>
        <mxCell id="hMoeo6pmhR3szECzcMf4-123" value="" style="rounded=0;whiteSpace=wrap;html=1;fillColor=#f5f5f5;strokeColor=#666666;fontSize=6;fontColor=#333333;" vertex="1" parent="hMoeo6pmhR3szECzcMf4-101">
          <mxGeometry x="1504" y="860" width="50" height="20" as="geometry" />
        </mxCell>
        <mxCell id="hMoeo6pmhR3szECzcMf4-124" value="" style="rounded=0;whiteSpace=wrap;html=1;fillColor=#f5f5f5;strokeColor=#666666;fontSize=6;fontColor=#333333;" vertex="1" parent="hMoeo6pmhR3szECzcMf4-101">
          <mxGeometry x="1564" y="790" width="20" height="60" as="geometry" />
        </mxCell>
        <mxCell id="hMoeo6pmhR3szECzcMf4-125" value="&lt;b&gt;Merger&lt;/b&gt;&lt;div&gt;(w x l)&lt;/div&gt;&lt;div&gt;8 m x 10 m&lt;/div&gt;" style="rounded=0;whiteSpace=wrap;html=1;fillColor=#ffe6cc;strokeColor=#d79b00;fontSize=6;" vertex="1" parent="hMoeo6pmhR3szECzcMf4-101">
          <mxGeometry x="1554" y="850" width="40" height="40" as="geometry" />
        </mxCell>
        <mxCell id="hMoeo6pmhR3szECzcMf4-126" value="" style="rounded=0;whiteSpace=wrap;html=1;fillColor=#f5f5f5;strokeColor=#666666;fontSize=6;fontColor=#333333;" vertex="1" parent="hMoeo6pmhR3szECzcMf4-101">
          <mxGeometry x="1324" y="790" width="20" height="60" as="geometry" />
        </mxCell>
        <mxCell id="hMoeo6pmhR3szECzcMf4-127" value="&lt;b&gt;Splitter&lt;/b&gt;&lt;div&gt;(w x l)&lt;/div&gt;&lt;div&gt;8 m x 10 m&lt;/div&gt;" style="rounded=0;whiteSpace=wrap;html=1;fillColor=#ffe6cc;strokeColor=#d79b00;fontSize=6;" vertex="1" parent="hMoeo6pmhR3szECzcMf4-101">
          <mxGeometry x="1314" y="750" width="40" height="40" as="geometry" />
        </mxCell>
        <mxCell id="hMoeo6pmhR3szECzcMf4-128" value="" style="rounded=0;whiteSpace=wrap;html=1;fillColor=#f5f5f5;strokeColor=#666666;fontSize=6;fontColor=#333333;" vertex="1" parent="hMoeo6pmhR3szECzcMf4-101">
          <mxGeometry x="1354" y="760" width="50" height="20" as="geometry" />
        </mxCell>
        <mxCell id="hMoeo6pmhR3szECzcMf4-129" value="&lt;b&gt;Constructor&lt;/b&gt;&lt;div&gt;(w x l)&lt;/div&gt;&lt;div&gt;8 m x 10 m&lt;/div&gt;" style="rounded=0;whiteSpace=wrap;html=1;fillColor=#e1d5e7;strokeColor=#9673a6;fontSize=6;" vertex="1" parent="hMoeo6pmhR3szECzcMf4-101">
          <mxGeometry x="1404" y="730" width="100" height="80" as="geometry" />
        </mxCell>
        <mxCell id="hMoeo6pmhR3szECzcMf4-130" value="&lt;b&gt;Merger&lt;/b&gt;&lt;div&gt;(w x l)&lt;/div&gt;&lt;div&gt;8 m x 10 m&lt;/div&gt;" style="rounded=0;whiteSpace=wrap;html=1;fillColor=#ffe6cc;strokeColor=#d79b00;fontSize=6;" vertex="1" parent="hMoeo6pmhR3szECzcMf4-101">
          <mxGeometry x="1554" y="750" width="40" height="40" as="geometry" />
        </mxCell>
        <mxCell id="hMoeo6pmhR3szECzcMf4-131" value="" style="rounded=0;whiteSpace=wrap;html=1;fillColor=#f5f5f5;strokeColor=#666666;fontSize=6;fontColor=#333333;" vertex="1" parent="hMoeo6pmhR3szECzcMf4-101">
          <mxGeometry x="1504" y="760" width="50" height="20" as="geometry" />
        </mxCell>
        <mxCell id="hMoeo6pmhR3szECzcMf4-132" value="" style="rounded=0;whiteSpace=wrap;html=1;fillColor=#f5f5f5;strokeColor=#666666;fontSize=6;fontColor=#333333;" vertex="1" parent="hMoeo6pmhR3szECzcMf4-101">
          <mxGeometry x="1594" y="760" width="60" height="20" as="geometry" />
        </mxCell>
        <mxCell id="hMoeo6pmhR3szECzcMf4-133" value="Screws Production" style="text;html=1;align=left;verticalAlign=middle;whiteSpace=wrap;rounded=0;" vertex="1" parent="hMoeo6pmhR3szECzcMf4-101">
          <mxGeometry x="1224" y="680" width="160" height="30" as="geometry" />
        </mxCell>
        <mxCell id="hMoeo6pmhR3szECzcMf4-134" value="&lt;b&gt;Splitter&lt;/b&gt;&lt;div&gt;(w x l)&lt;/div&gt;&lt;div&gt;8 m x 10 m&lt;/div&gt;" style="rounded=0;whiteSpace=wrap;html=1;fillColor=#ffe6cc;strokeColor=#d79b00;fontSize=6;" vertex="1" parent="hMoeo6pmhR3szECzcMf4-101">
          <mxGeometry x="1314" y="950" width="40" height="40" as="geometry" />
        </mxCell>
        <mxCell id="hMoeo6pmhR3szECzcMf4-135" value="" style="rounded=0;whiteSpace=wrap;html=1;fillColor=#f5f5f5;strokeColor=#666666;fontSize=6;fontColor=#333333;" vertex="1" parent="hMoeo6pmhR3szECzcMf4-101">
          <mxGeometry x="1354" y="960" width="50" height="20" as="geometry" />
        </mxCell>
        <mxCell id="hMoeo6pmhR3szECzcMf4-136" value="&lt;b&gt;Constructor&lt;/b&gt;&lt;div&gt;(w x l)&lt;/div&gt;&lt;div&gt;8 m x 10 m&lt;/div&gt;" style="rounded=0;whiteSpace=wrap;html=1;fillColor=#e1d5e7;strokeColor=#9673a6;fontSize=6;" vertex="1" parent="hMoeo6pmhR3szECzcMf4-101">
          <mxGeometry x="1404" y="930" width="100" height="80" as="geometry" />
        </mxCell>
        <mxCell id="hMoeo6pmhR3szECzcMf4-137" value="" style="rounded=0;whiteSpace=wrap;html=1;fillColor=#f5f5f5;strokeColor=#666666;fontSize=6;fontColor=#333333;" vertex="1" parent="hMoeo6pmhR3szECzcMf4-101">
          <mxGeometry x="1504" y="960" width="50" height="20" as="geometry" />
        </mxCell>
        <mxCell id="hMoeo6pmhR3szECzcMf4-138" value="&lt;b&gt;Merger&lt;/b&gt;&lt;div&gt;(w x l)&lt;/div&gt;&lt;div&gt;8 m x 10 m&lt;/div&gt;" style="rounded=0;whiteSpace=wrap;html=1;fillColor=#ffe6cc;strokeColor=#d79b00;fontSize=6;" vertex="1" parent="hMoeo6pmhR3szECzcMf4-101">
          <mxGeometry x="1554" y="950" width="40" height="40" as="geometry" />
        </mxCell>
        <mxCell id="hMoeo6pmhR3szECzcMf4-139" value="" style="rounded=0;whiteSpace=wrap;html=1;fillColor=#f5f5f5;strokeColor=#666666;fontSize=6;fontColor=#333333;" vertex="1" parent="hMoeo6pmhR3szECzcMf4-101">
          <mxGeometry x="1324" y="890" width="20" height="60" as="geometry" />
        </mxCell>
        <mxCell id="hMoeo6pmhR3szECzcMf4-140" value="" style="rounded=0;whiteSpace=wrap;html=1;fillColor=#f5f5f5;strokeColor=#666666;fontSize=6;fontColor=#333333;" vertex="1" parent="hMoeo6pmhR3szECzcMf4-101">
          <mxGeometry x="1564" y="890" width="20" height="60" as="geometry" />
        </mxCell>
        <mxCell id="hMoeo6pmhR3szECzcMf4-141" value="" style="whiteSpace=wrap;html=1;aspect=fixed;strokeColor=#808080;fillColor=#CCE5FF;" vertex="1" parent="hMoeo6pmhR3szECzcMf4-101">
          <mxGeometry x="750" y="795" width="80" height="80" as="geometry" />
        </mxCell>
        <mxCell id="hMoeo6pmhR3szECzcMf4-142" value="" style="whiteSpace=wrap;html=1;aspect=fixed;strokeColor=#808080;fillColor=#CCE5FF;" vertex="1" parent="hMoeo6pmhR3szECzcMf4-101">
          <mxGeometry x="750" y="875" width="80" height="80" as="geometry" />
        </mxCell>
        <mxCell id="hMoeo6pmhR3szECzcMf4-143" value="" style="whiteSpace=wrap;html=1;aspect=fixed;strokeColor=#808080;fillColor=#CCE5FF;" vertex="1" parent="hMoeo6pmhR3szECzcMf4-101">
          <mxGeometry x="830" y="795" width="80" height="80" as="geometry" />
        </mxCell>
        <mxCell id="hMoeo6pmhR3szECzcMf4-144" value="" style="whiteSpace=wrap;html=1;aspect=fixed;strokeColor=#808080;fillColor=#CCE5FF;" vertex="1" parent="hMoeo6pmhR3szECzcMf4-101">
          <mxGeometry x="910" y="795" width="80" height="80" as="geometry" />
        </mxCell>
        <mxCell id="hMoeo6pmhR3szECzcMf4-145" value="" style="whiteSpace=wrap;html=1;aspect=fixed;strokeColor=#808080;fillColor=#CCE5FF;" vertex="1" parent="hMoeo6pmhR3szECzcMf4-101">
          <mxGeometry x="830" y="875" width="80" height="80" as="geometry" />
        </mxCell>
        <mxCell id="hMoeo6pmhR3szECzcMf4-146" value="" style="whiteSpace=wrap;html=1;aspect=fixed;strokeColor=#808080;fillColor=#CCE5FF;" vertex="1" parent="hMoeo6pmhR3szECzcMf4-101">
          <mxGeometry x="910" y="875" width="80" height="80" as="geometry" />
        </mxCell>
        <mxCell id="hMoeo6pmhR3szECzcMf4-147" value="" style="whiteSpace=wrap;html=1;aspect=fixed;strokeColor=#808080;fillColor=#CCE5FF;" vertex="1" parent="hMoeo6pmhR3szECzcMf4-101">
          <mxGeometry x="990" y="795" width="80" height="80" as="geometry" />
        </mxCell>
        <mxCell id="hMoeo6pmhR3szECzcMf4-148" value="" style="whiteSpace=wrap;html=1;aspect=fixed;strokeColor=#808080;fillColor=#CCE5FF;" vertex="1" parent="hMoeo6pmhR3szECzcMf4-101">
          <mxGeometry x="990" y="875" width="80" height="80" as="geometry" />
        </mxCell>
        <mxCell id="hMoeo6pmhR3szECzcMf4-149" value="" style="whiteSpace=wrap;html=1;aspect=fixed;strokeColor=#808080;fillColor=#CCE5FF;" vertex="1" parent="hMoeo6pmhR3szECzcMf4-101">
          <mxGeometry x="750" y="715" width="80" height="80" as="geometry" />
        </mxCell>
        <mxCell id="hMoeo6pmhR3szECzcMf4-150" value="" style="whiteSpace=wrap;html=1;aspect=fixed;strokeColor=#808080;fillColor=#CCE5FF;" vertex="1" parent="hMoeo6pmhR3szECzcMf4-101">
          <mxGeometry x="830" y="715" width="80" height="80" as="geometry" />
        </mxCell>
        <mxCell id="hMoeo6pmhR3szECzcMf4-151" value="" style="whiteSpace=wrap;html=1;aspect=fixed;strokeColor=#808080;fillColor=#CCE5FF;" vertex="1" parent="hMoeo6pmhR3szECzcMf4-101">
          <mxGeometry x="910" y="715" width="80" height="80" as="geometry" />
        </mxCell>
        <mxCell id="hMoeo6pmhR3szECzcMf4-152" value="" style="whiteSpace=wrap;html=1;aspect=fixed;strokeColor=#808080;fillColor=#CCE5FF;" vertex="1" parent="hMoeo6pmhR3szECzcMf4-101">
          <mxGeometry x="990" y="715" width="80" height="80" as="geometry" />
        </mxCell>
        <mxCell id="hMoeo6pmhR3szECzcMf4-153" value="Iron Rod Production" style="text;html=1;align=left;verticalAlign=middle;whiteSpace=wrap;rounded=0;fontStyle=1" vertex="1" parent="hMoeo6pmhR3szECzcMf4-101">
          <mxGeometry x="750" y="685" width="160" height="30" as="geometry" />
        </mxCell>
        <mxCell id="hMoeo6pmhR3szECzcMf4-154" value="" style="rounded=0;whiteSpace=wrap;html=1;fillColor=#f5f5f5;strokeColor=#666666;fontSize=6;fontColor=#333333;" vertex="1" parent="hMoeo6pmhR3szECzcMf4-101">
          <mxGeometry x="710" y="765" width="60" height="20" as="geometry" />
        </mxCell>
        <mxCell id="hMoeo6pmhR3szECzcMf4-155" value="&lt;b&gt;Splitter&lt;/b&gt;&lt;div&gt;(w x l)&lt;/div&gt;&lt;div&gt;8 m x 10 m&lt;/div&gt;" style="rounded=0;whiteSpace=wrap;html=1;fillColor=#ffe6cc;strokeColor=#d79b00;fontSize=6;" vertex="1" parent="hMoeo6pmhR3szECzcMf4-101">
          <mxGeometry x="770" y="855" width="40" height="40" as="geometry" />
        </mxCell>
        <mxCell id="hMoeo6pmhR3szECzcMf4-156" value="" style="rounded=0;whiteSpace=wrap;html=1;fillColor=#f5f5f5;strokeColor=#666666;fontSize=6;fontColor=#333333;" vertex="1" parent="hMoeo6pmhR3szECzcMf4-101">
          <mxGeometry x="810" y="865" width="50" height="20" as="geometry" />
        </mxCell>
        <mxCell id="hMoeo6pmhR3szECzcMf4-157" value="&lt;b&gt;Constructor&lt;/b&gt;&lt;div&gt;(w x l)&lt;/div&gt;&lt;div&gt;8 m x 10 m&lt;/div&gt;" style="rounded=0;whiteSpace=wrap;html=1;fillColor=#e1d5e7;strokeColor=#9673a6;fontSize=6;" vertex="1" parent="hMoeo6pmhR3szECzcMf4-101">
          <mxGeometry x="860" y="835" width="100" height="80" as="geometry" />
        </mxCell>
        <mxCell id="hMoeo6pmhR3szECzcMf4-158" value="" style="rounded=0;whiteSpace=wrap;html=1;fillColor=#f5f5f5;strokeColor=#666666;fontSize=6;fontColor=#333333;" vertex="1" parent="hMoeo6pmhR3szECzcMf4-101">
          <mxGeometry x="960" y="865" width="50" height="20" as="geometry" />
        </mxCell>
        <mxCell id="hMoeo6pmhR3szECzcMf4-159" value="" style="rounded=0;whiteSpace=wrap;html=1;fillColor=#f5f5f5;strokeColor=#666666;fontSize=6;fontColor=#333333;" vertex="1" parent="hMoeo6pmhR3szECzcMf4-101">
          <mxGeometry x="1020" y="795" width="20" height="60" as="geometry" />
        </mxCell>
        <mxCell id="hMoeo6pmhR3szECzcMf4-160" value="&lt;b&gt;Merger&lt;/b&gt;&lt;div&gt;(w x l)&lt;/div&gt;&lt;div&gt;8 m x 10 m&lt;/div&gt;" style="rounded=0;whiteSpace=wrap;html=1;fillColor=#ffe6cc;strokeColor=#d79b00;fontSize=6;" vertex="1" parent="hMoeo6pmhR3szECzcMf4-101">
          <mxGeometry x="1010" y="855" width="40" height="40" as="geometry" />
        </mxCell>
        <mxCell id="hMoeo6pmhR3szECzcMf4-161" value="" style="rounded=0;whiteSpace=wrap;html=1;fillColor=#f5f5f5;strokeColor=#666666;fontSize=6;fontColor=#333333;" vertex="1" parent="hMoeo6pmhR3szECzcMf4-101">
          <mxGeometry x="780" y="795" width="20" height="60" as="geometry" />
        </mxCell>
        <mxCell id="hMoeo6pmhR3szECzcMf4-162" value="&lt;b&gt;Splitter&lt;/b&gt;&lt;div&gt;(w x l)&lt;/div&gt;&lt;div&gt;8 m x 10 m&lt;/div&gt;" style="rounded=0;whiteSpace=wrap;html=1;fillColor=#ffe6cc;strokeColor=#d79b00;fontSize=6;" vertex="1" parent="hMoeo6pmhR3szECzcMf4-101">
          <mxGeometry x="770" y="755" width="40" height="40" as="geometry" />
        </mxCell>
        <mxCell id="hMoeo6pmhR3szECzcMf4-163" value="" style="rounded=0;whiteSpace=wrap;html=1;fillColor=#f5f5f5;strokeColor=#666666;fontSize=6;fontColor=#333333;" vertex="1" parent="hMoeo6pmhR3szECzcMf4-101">
          <mxGeometry x="810" y="765" width="50" height="20" as="geometry" />
        </mxCell>
        <mxCell id="hMoeo6pmhR3szECzcMf4-164" value="&lt;b&gt;Constructor&lt;/b&gt;&lt;div&gt;(w x l)&lt;/div&gt;&lt;div&gt;8 m x 10 m&lt;/div&gt;" style="rounded=0;whiteSpace=wrap;html=1;fillColor=#e1d5e7;strokeColor=#9673a6;fontSize=6;" vertex="1" parent="hMoeo6pmhR3szECzcMf4-101">
          <mxGeometry x="860" y="735" width="100" height="80" as="geometry" />
        </mxCell>
        <mxCell id="hMoeo6pmhR3szECzcMf4-165" value="&lt;b&gt;Merger&lt;/b&gt;&lt;div&gt;(w x l)&lt;/div&gt;&lt;div&gt;8 m x 10 m&lt;/div&gt;" style="rounded=0;whiteSpace=wrap;html=1;fillColor=#ffe6cc;strokeColor=#d79b00;fontSize=6;" vertex="1" parent="hMoeo6pmhR3szECzcMf4-101">
          <mxGeometry x="1010" y="755" width="40" height="40" as="geometry" />
        </mxCell>
        <mxCell id="hMoeo6pmhR3szECzcMf4-166" value="" style="rounded=0;whiteSpace=wrap;html=1;fillColor=#f5f5f5;strokeColor=#666666;fontSize=6;fontColor=#333333;" vertex="1" parent="hMoeo6pmhR3szECzcMf4-101">
          <mxGeometry x="960" y="765" width="50" height="20" as="geometry" />
        </mxCell>
        <mxCell id="hMoeo6pmhR3szECzcMf4-167" value="" style="rounded=0;whiteSpace=wrap;html=1;fillColor=#f5f5f5;strokeColor=#666666;fontSize=6;fontColor=#333333;" vertex="1" parent="hMoeo6pmhR3szECzcMf4-101">
          <mxGeometry x="1050" y="765" width="60" height="20" as="geometry" />
        </mxCell>
        <mxCell id="hMoeo6pmhR3szECzcMf4-172" value="" style="whiteSpace=wrap;html=1;aspect=fixed;strokeColor=#808080;fillColor=#CCE5FF;" vertex="1" parent="hMoeo6pmhR3szECzcMf4-101">
          <mxGeometry x="1860" y="800" width="80" height="80" as="geometry" />
        </mxCell>
        <mxCell id="hMoeo6pmhR3szECzcMf4-173" value="" style="whiteSpace=wrap;html=1;aspect=fixed;strokeColor=#808080;fillColor=#CCE5FF;" vertex="1" parent="hMoeo6pmhR3szECzcMf4-101">
          <mxGeometry x="1940" y="800" width="80" height="80" as="geometry" />
        </mxCell>
        <mxCell id="hMoeo6pmhR3szECzcMf4-176" value="" style="whiteSpace=wrap;html=1;aspect=fixed;strokeColor=#808080;fillColor=#CCE5FF;" vertex="1" parent="hMoeo6pmhR3szECzcMf4-101">
          <mxGeometry x="2020" y="800" width="80" height="80" as="geometry" />
        </mxCell>
        <mxCell id="hMoeo6pmhR3szECzcMf4-180" value="" style="whiteSpace=wrap;html=1;aspect=fixed;strokeColor=#808080;fillColor=#CCE5FF;" vertex="1" parent="hMoeo6pmhR3szECzcMf4-101">
          <mxGeometry x="1860" y="720" width="80" height="80" as="geometry" />
        </mxCell>
        <mxCell id="hMoeo6pmhR3szECzcMf4-181" value="" style="whiteSpace=wrap;html=1;aspect=fixed;strokeColor=#808080;fillColor=#CCE5FF;" vertex="1" parent="hMoeo6pmhR3szECzcMf4-101">
          <mxGeometry x="1940" y="720" width="80" height="80" as="geometry" />
        </mxCell>
        <mxCell id="hMoeo6pmhR3szECzcMf4-182" value="" style="whiteSpace=wrap;html=1;aspect=fixed;strokeColor=#808080;fillColor=#CCE5FF;" vertex="1" parent="hMoeo6pmhR3szECzcMf4-101">
          <mxGeometry x="2020" y="720" width="80" height="80" as="geometry" />
        </mxCell>
        <mxCell id="hMoeo6pmhR3szECzcMf4-198" value="&lt;b&gt;Assembler&lt;/b&gt;&lt;div&gt;&lt;span style=&quot;background-color: transparent; color: light-dark(rgb(0, 0, 0), rgb(255, 255, 255));&quot;&gt;(w x l)&lt;/span&gt;&lt;div&gt;10 m x 15 m&lt;/div&gt;&lt;/div&gt;" style="rounded=0;whiteSpace=wrap;html=1;fillColor=#d5e8d4;strokeColor=#82b366;fontSize=6;" vertex="1" parent="hMoeo6pmhR3szECzcMf4-101">
          <mxGeometry x="1890" y="740" width="150" height="100" as="geometry" />
        </mxCell>
        <mxCell id="hMoeo6pmhR3szECzcMf4-202" value="" style="rounded=0;whiteSpace=wrap;html=1;fillColor=#f5f5f5;strokeColor=#666666;fontSize=6;fontColor=#333333;" vertex="1" parent="hMoeo6pmhR3szECzcMf4-101">
          <mxGeometry x="2040" y="780" width="80" height="20" as="geometry" />
        </mxCell>
        <mxCell id="hMoeo6pmhR3szECzcMf4-212" value="" style="rounded=0;whiteSpace=wrap;html=1;fillColor=#f5f5f5;strokeColor=#666666;fontSize=6;fontColor=#333333;" vertex="1" parent="hMoeo6pmhR3szECzcMf4-101">
          <mxGeometry x="1840" y="750" width="50" height="20" as="geometry" />
        </mxCell>
        <mxCell id="hMoeo6pmhR3szECzcMf4-221" value="Rotor Production" style="text;html=1;align=left;verticalAlign=middle;whiteSpace=wrap;rounded=0;" vertex="1" parent="hMoeo6pmhR3szECzcMf4-101">
          <mxGeometry x="1840" y="680" width="160" height="30" as="geometry" />
        </mxCell>
        <mxCell id="hMoeo6pmhR3szECzcMf4-222" value="" style="rounded=0;whiteSpace=wrap;html=1;fillColor=#f5f5f5;strokeColor=#666666;fontSize=6;fontColor=#333333;" vertex="1" parent="hMoeo6pmhR3szECzcMf4-101">
          <mxGeometry x="1840" y="810" width="50" height="20" as="geometry" />
        </mxCell>
        <mxCell id="hMoeo6pmhR3szECzcMf4-102" value="Parts" parent="0" />
      </root>
    </mxGraphModel>
  </diagram>
</mxfile>
